<svg width="24" height="24" viewBox="0 0 24 24" fill="none" xmlns="http://www.w3.org/2000/svg">
  <rect width="24" height="24" rx="12" fill="#4D7C0F"/>
  <path d="M16.5 8.25C16.5 10.32 14.82 12 12.75 12H11.25C9.18 12 7.5 10.32 7.5 8.25C7.5 6.18 9.18 4.5 11.25 4.5H12.75C14.82 4.5 16.5 6.18 16.5 8.25Z" stroke="white" stroke-width="1.5"/>
  <path d="M7.5 15.75C7.5 13.68 9.18 12 11.25 12H12.75C14.82 12 16.5 13.68 16.5 15.75C16.5 17.82 14.82 19.5 12.75 19.5H11.25C9.18 19.5 7.5 17.82 7.5 15.75Z" stroke="white" stroke-width="1.5"/>
</svg>